<svg width="36" height="36" viewBox="0 0 36 36" fill="none" xmlns="http://www.w3.org/2000/svg">
<path d="M18.0059 0C10.491 0 8.29324 0.0077545 7.86603 0.0432037C6.32386 0.17143 5.36422 0.414312 4.31876 0.934971C3.51306 1.33516 2.87764 1.79904 2.25053 2.44931C1.10844 3.6352 0.41626 5.09415 0.165692 6.82839C0.0438687 7.67031 0.00842918 7.84202 0.00123054 12.1424C-0.00153817 13.5759 0.00123054 15.4625 0.00123054 17.9929C0.00123054 25.5037 0.00953667 27.6999 0.0455299 28.1264C0.170122 29.6275 0.405462 30.5718 0.90383 31.6049C1.85627 33.5823 3.67531 35.0667 5.81829 35.6206C6.56031 35.8117 7.37984 35.9169 8.43195 35.9668C8.87772 35.9862 13.4212 36 17.9674 36C22.5136 36 27.0598 35.9945 27.4945 35.9723C28.7128 35.915 29.4202 35.82 30.2023 35.6178C32.3591 35.0612 34.145 33.5989 35.1168 31.5938C35.6055 30.5857 35.8533 29.6053 35.9654 28.1826C35.9898 27.8725 36 22.927 36 17.9882C36 13.0486 35.9889 8.11232 35.9646 7.80214C35.851 6.35648 35.6032 5.38439 35.0988 4.35692C34.6849 3.51584 34.2253 2.88772 33.558 2.24548C32.3672 1.10779 30.9108 0.41542 29.1754 0.16506C28.3345 0.0434806 28.167 0.00747756 23.8645 0H18.0059Z" fill="#3D414B"/>
<path d="M26.5286 33.3997H20.3816V18.5181H17.3105V13.3896H20.3816V10.3105C20.3816 6.12667 22.1157 3.63879 27.0424 3.63879H31.1441V8.76787H28.5803C26.6624 8.76787 26.5355 9.48458 26.5355 10.8222L26.5286 13.389H31.1732L30.6297 18.5175H26.5286V33.3997Z" fill="white"/>
</svg>
