<svg width="36" height="36" viewBox="0 0 36 36" fill="none" xmlns="http://www.w3.org/2000/svg">
<path d="M18.0059 0C10.491 0 8.29324 0.00775239 7.86603 0.0431919C6.32386 0.171383 5.36422 0.414199 4.31876 0.934717C3.51306 1.3348 2.87764 1.79855 2.25053 2.44865C1.10844 3.63421 0.41626 5.09277 0.165692 6.82653C0.0438687 7.66822 0.00842918 7.83988 0.00123054 12.1391C-0.00153817 13.5722 0.00123054 15.4583 0.00123054 17.988C0.00123054 25.4968 0.00953667 27.6924 0.0455299 28.1187C0.170122 29.6194 0.405462 30.5635 0.90383 31.5962C1.85627 33.5731 3.67531 35.0571 5.81829 35.6109C6.56031 35.8019 7.37984 35.9071 8.43195 35.957C8.87772 35.9763 13.4212 35.9902 17.9674 35.9902C22.5136 35.9902 27.0598 35.9846 27.4945 35.9625C28.7128 35.9052 29.4202 35.8102 30.2023 35.6081C32.3591 35.0516 34.145 33.5897 35.1168 31.5852C35.6055 30.5774 35.8533 29.5972 35.9654 28.1749C35.9898 27.8649 36 22.9208 36 17.9833C36 13.0451 35.9889 8.11011 35.9646 7.80001C35.851 6.35474 35.6032 5.38293 35.0988 4.35573C34.6849 3.51488 34.2253 2.88693 33.558 2.24487C32.3672 1.10748 30.9108 0.415307 29.1754 0.165015C28.3345 0.0434688 28.167 0.00747552 23.8645 0H18.0059Z" fill="#3D414B"/>
<path fill-rule="evenodd" clip-rule="evenodd" d="M17.9975 4.70679C14.3882 4.70679 13.9352 4.72257 12.5176 4.78708C11.1028 4.85187 10.1371 5.07586 9.29208 5.4045C8.418 5.74395 7.67654 6.19801 6.93785 6.93698C6.1986 7.67567 5.74453 8.41714 5.40398 9.29094C5.0745 10.1362 4.85024 11.1022 4.78656 12.5165C4.72316 13.9341 4.70654 14.3873 4.70654 17.9966C4.70654 21.6059 4.7226 22.0575 4.78684 23.475C4.8519 24.8899 5.07589 25.8556 5.40426 26.7006C5.74398 27.5747 6.19805 28.3161 6.93702 29.0548C7.67543 29.7941 8.41689 30.2492 9.29042 30.5887C10.136 30.9173 11.102 31.1413 12.5165 31.2061C13.9341 31.2706 14.3868 31.2864 17.9958 31.2864C21.6054 31.2864 22.0569 31.2706 23.4745 31.2061C24.8893 31.1413 25.8562 30.9173 26.7017 30.5887C27.5755 30.2492 28.3159 29.7941 29.0543 29.0548C29.7936 28.3161 30.2476 27.5747 30.5882 26.7009C30.9149 25.8556 31.1391 24.8896 31.2056 23.4753C31.2693 22.0577 31.2859 21.6059 31.2859 17.9966C31.2859 14.3873 31.2693 13.9343 31.2056 12.5168C31.1391 11.102 30.9149 10.1362 30.5882 9.29122C30.2476 8.41714 29.7936 7.67567 29.0543 6.93698C28.3151 6.19774 27.5758 5.74367 26.7009 5.4045C25.8537 5.07586 24.8874 4.85187 23.4726 4.78708C22.055 4.72257 21.6037 4.70679 17.9933 4.70679H17.9975ZM16.8053 7.10172C17.0367 7.10136 17.2858 7.10147 17.5545 7.10159L17.9975 7.10172C21.5458 7.10172 21.9664 7.11446 23.3676 7.17814C24.6634 7.23739 25.3667 7.4539 25.8351 7.63581C26.4553 7.87668 26.8975 8.16463 27.3623 8.62977C27.8275 9.09492 28.1154 9.53791 28.3569 10.1581C28.5388 10.626 28.7556 11.3293 28.8145 12.625C28.8782 14.026 28.8921 14.4468 28.8921 17.9936C28.8921 21.5403 28.8782 21.9611 28.8145 23.3621C28.7553 24.6578 28.5388 25.3611 28.3569 25.829C28.116 26.4492 27.8275 26.8908 27.3623 27.3557C26.8972 27.8208 26.4556 28.1088 25.8351 28.3496C25.3672 28.5324 24.6634 28.7483 23.3676 28.8076C21.9667 28.8713 21.5458 28.8851 17.9975 28.8851C14.4488 28.8851 14.0282 28.8713 12.6273 28.8076C11.3315 28.7478 10.6283 28.5313 10.1595 28.3494C9.53933 28.1085 9.09633 27.8205 8.63119 27.3554C8.16605 26.8902 7.8781 26.4484 7.63667 25.8279C7.45476 25.36 7.23797 24.6567 7.179 23.361C7.11532 21.96 7.10258 21.5392 7.10258 17.9902C7.10258 14.4413 7.11532 14.0227 7.179 12.6217C7.23825 11.3259 7.45476 10.6227 7.63667 10.1542C7.87755 9.53403 8.16605 9.09104 8.63119 8.6259C9.09633 8.16075 9.53933 7.87281 10.1595 7.63138C10.628 7.44864 11.3315 7.23268 12.6273 7.17315C13.8533 7.11778 14.3284 7.10117 16.8053 7.0984V7.10172ZM23.4967 10.9026C23.4967 10.0219 24.211 9.30838 25.0914 9.30838V9.30783C25.9719 9.30783 26.6862 10.0222 26.6862 10.9026C26.6862 11.7831 25.9719 12.4974 25.0914 12.4974C24.211 12.4974 23.4967 11.7831 23.4967 10.9026ZM17.9972 11.1717C14.2283 11.1719 11.1726 14.2276 11.1726 17.9966C11.1726 21.7656 14.2284 24.8201 17.9975 24.8201C21.7665 24.8201 24.8212 21.7656 24.8212 17.9966C24.8212 14.2276 21.7662 11.1717 17.9972 11.1717ZM22.4274 17.9966C22.4274 15.5499 20.4439 13.5667 17.9975 13.5667C15.5508 13.5667 13.5675 15.5499 13.5675 17.9966C13.5675 20.443 15.5508 22.4265 17.9975 22.4265C20.4439 22.4265 22.4274 20.443 22.4274 17.9966Z" fill="white"/>
</svg>
