<?xml version="1.0" standalone="no"?>
<!DOCTYPE svg PUBLIC "-//W3C//DTD SVG 20010904//EN"
 "http://www.w3.org/TR/2001/REC-SVG-20010904/DTD/svg10.dtd">
<svg version="1.0" xmlns="http://www.w3.org/2000/svg"
 width="1000.000000pt" height="1000.000000pt" viewBox="0 0 1000.000000 1000.000000"
 preserveAspectRatio="xMidYMid meet">
<metadata>
Created by potrace 1.14, written by Peter Selinger 2001-2017
</metadata>
<g transform="translate(0.000000,1000.000000) scale(0.100000,-0.100000)"
fill="#000000" stroke="none">
<path d="M4738 9995 c-1 -1 -52 -6 -113 -9 -60 -4 -119 -9 -130 -11 -11 -2
-46 -7 -77 -9 -31 -3 -67 -8 -80 -10 -13 -3 -42 -8 -66 -10 -84 -10 -268 -45
-387 -72 -11 -3 -38 -9 -60 -14 -33 -7 -90 -22 -175 -44 -133 -36 -466 -152
-580 -202 -19 -8 -44 -19 -55 -24 -53 -22 -424 -206 -455 -225 -19 -12 -75
-46 -125 -75 -168 -99 -443 -290 -560 -389 -17 -14 -50 -41 -73 -59 -55 -45
-73 -60 -176 -155 -171 -157 -297 -290 -500 -527 -12 -14 -67 -86 -122 -160
-249 -334 -437 -657 -588 -1010 -32 -74 -62 -144 -67 -155 -12 -27 -76 -206
-101 -280 -32 -97 -114 -404 -132 -490 -9 -44 -19 -91 -21 -105 -3 -14 -8 -40
-11 -59 -3 -18 -7 -43 -10 -55 -9 -47 -34 -225 -39 -286 -4 -36 -9 -76 -11
-90 -16 -98 -24 -674 -11 -800 3 -36 9 -99 12 -140 4 -41 13 -124 21 -185 20
-146 23 -166 29 -195 2 -13 7 -42 11 -65 8 -60 71 -327 100 -430 168 -597 433
-1137 802 -1635 71 -96 211 -271 232 -290 3 -3 25 -27 49 -55 124 -140 334
-345 491 -480 142 -120 143 -121 210 -170 30 -22 61 -45 67 -52 20 -18 298
-204 388 -258 344 -208 768 -394 1155 -509 166 -49 398 -105 508 -122 20 -3
39 -7 42 -9 3 -2 33 -7 65 -10 33 -4 62 -9 65 -10 3 -2 34 -6 70 -10 36 -3 72
-8 80 -10 8 -2 49 -7 90 -10 41 -4 93 -9 115 -12 73 -8 629 -10 720 -2 184 16
241 21 265 24 98 11 268 39 372 61 37 7 80 16 95 19 64 11 277 67 398 105 72
22 137 42 145 45 8 2 85 30 170 63 678 259 1280 654 1791 1177 127 130 131
135 262 290 157 187 343 445 438 608 19 33 42 73 53 90 170 287 335 659 442
999 32 103 106 380 118 439 7 41 38 203 41 220 13 69 20 117 34 244 7 55 14
114 16 130 25 179 25 782 0 936 -2 13 -6 56 -10 94 -3 39 -8 84 -10 100 -3 17
-7 48 -10 70 -5 34 -21 133 -40 240 -10 52 -77 340 -82 347 -2 5 -6 17 -8 28
-17 87 -137 432 -212 610 -156 368 -403 794 -620 1070 -58 74 -175 219 -190
235 -10 11 -38 43 -62 70 -112 127 -320 332 -451 445 -41 36 -81 71 -88 78
-11 10 -57 46 -197 155 -65 50 -207 147 -350 239 -295 190 -718 388 -1090 510
-137 45 -409 120 -484 133 -17 3 -59 12 -93 20 -89 20 -349 58 -478 70 -36 4
-85 9 -110 11 -51 6 -646 14 -652 9z m662 -629 c19 -3 60 -8 90 -11 30 -3 66
-7 80 -9 73 -12 129 -19 162 -20 20 -1 34 -4 32 -7 -2 -4 38 -13 89 -22 89
-14 355 -79 400 -97 12 -4 67 -23 122 -40 55 -17 110 -35 123 -41 39 -16 65
-26 162 -65 311 -122 685 -336 980 -559 230 -174 515 -442 685 -645 44 -52 82
-97 85 -100 3 -3 39 -50 81 -105 266 -351 486 -758 636 -1175 28 -80 95 -293
109 -349 2 -9 10 -43 19 -76 14 -57 19 -78 30 -135 3 -14 7 -34 9 -45 14 -68
36 -197 41 -240 3 -27 8 -63 10 -80 7 -48 14 -114 20 -195 4 -41 8 -91 11
-110 5 -46 5 -436 0 -475 -3 -16 -7 -66 -10 -110 -12 -154 -23 -243 -50 -400
-58 -335 -126 -573 -258 -907 -130 -330 -338 -694 -568 -998 -85 -112 -101
-132 -204 -249 -188 -215 -422 -431 -659 -609 -113 -85 -309 -217 -382 -258
-11 -6 -62 -34 -113 -63 -114 -65 -371 -188 -467 -225 -38 -15 -79 -31 -90
-37 -11 -5 -87 -32 -170 -60 -255 -85 -518 -149 -765 -184 -63 -8 -128 -18
-145 -20 -179 -27 -832 -27 -975 0 -14 2 -52 6 -85 9 -33 3 -60 6 -60 6 0 2
-32 8 -75 14 -19 3 -51 8 -70 12 -19 3 -49 7 -67 8 -17 0 -29 4 -26 9 2 4 -6
7 -19 8 -31 1 -37 2 -185 39 -220 54 -478 144 -718 249 -90 39 -369 183 -430
221 -16 11 -43 27 -60 36 -66 37 -316 211 -414 287 -226 177 -469 410 -637
609 -43 51 -81 95 -84 98 -3 3 -44 57 -91 120 -173 233 -294 427 -415 670 -74
149 -164 349 -164 365 0 4 -6 21 -14 38 -29 64 -118 339 -142 437 -2 8 -11 44
-19 80 -32 129 -77 372 -90 485 -3 28 -8 64 -10 80 -27 184 -27 783 -1 945 3
14 7 50 10 80 4 30 8 66 11 80 2 14 6 41 9 60 3 19 8 45 10 56 2 12 7 37 10
55 84 519 333 1133 659 1623 470 709 1172 1291 1947 1614 245 102 607 217 785
247 17 3 37 8 45 10 8 2 31 7 50 10 19 3 46 8 60 10 58 12 76 15 124 20 28 3
65 8 81 10 53 9 108 14 205 21 52 4 97 8 99 11 7 5 609 -5 651 -11z"/>
<path d="M4381 8350 c0 -533 3 -690 12 -691 7 0 234 -1 504 -1 535 0 558 2
651 54 227 128 283 411 122 624 l-38 51 22 29 c43 55 79 163 79 234 -1 67 -30
163 -62 203 -81 102 -159 155 -256 175 -31 7 -240 11 -542 12 l-492 0 0 -690z
m956 380 c40 -24 54 -50 55 -100 0 -41 -16 -72 -54 -98 -20 -15 -62 -17 -330
-18 -308 -2 -308 -1 -309 20 -1 29 -1 188 0 204 1 9 69 12 304 12 281 0 304
-1 334 -20z m19 -523 c60 -31 82 -123 44 -184 -38 -62 -46 -64 -392 -61 l-312
3 1 110 c1 61 2 119 2 130 1 20 8 20 313 19 269 0 317 -3 344 -17z"/>
<path d="M4840 7385 c-9 -11 -657 -1317 -670 -1351 -8 -21 -7 -21 167 -21
l175 1 28 60 c16 34 40 87 54 119 l25 57 388 0 388 0 49 -112 c27 -62 51 -115
54 -118 5 -7 352 -9 352 -2 0 10 -679 1354 -691 1366 -12 13 -308 14 -319 1z
m188 -402 c11 -27 53 -115 92 -198 72 -150 110 -233 110 -241 0 -2 -104 -4
-231 -4 -228 0 -230 0 -224 20 4 12 45 101 91 198 47 97 95 198 107 224 12 26
25 48 28 48 4 0 16 -21 27 -47z"/>
<path d="M1013 5020 l0 -691 536 3 536 3 68 34 c238 116 313 408 161 618 -48
67 -48 67 -22 110 14 21 35 65 48 97 73 182 -29 401 -227 486 l-58 25 -521 3
-521 3 0 -691z m971 371 c47 -45 53 -108 15 -160 -13 -17 -32 -34 -43 -38 -12
-4 -157 -7 -323 -8 l-303 0 0 117 0 117 111 3 c62 2 203 1 315 -2 196 -5 203
-6 228 -29z m9 -515 c36 -24 57 -65 57 -113 0 -50 -18 -82 -58 -110 -33 -21
-40 -22 -348 -23 l-314 0 0 129 c0 84 4 131 11 133 6 2 149 3 317 3 281 -1
309 -3 335 -19z"/>
<path d="M3079 5313 c-108 -219 -260 -526 -338 -682 -77 -156 -141 -288 -141
-293 0 -5 78 -7 176 -6 l175 3 50 115 50 116 389 0 390 0 51 -118 52 -118 178
0 178 0 -279 553 c-153 303 -309 613 -347 687 l-68 135 -160 3 -160 2 -196
-397z m529 -325 c37 -79 56 -128 48 -130 -6 -3 -110 -4 -231 -3 -249 1 -232
-7 -185 90 32 68 142 298 173 364 l21 45 57 -120 c32 -65 84 -176 117 -246z"/>
<path d="M4159 5693 c5 -10 18 -27 28 -38 10 -11 38 -47 63 -80 25 -33 47 -62
51 -65 3 -3 125 -159 272 -348 190 -244 267 -351 268 -370 0 -15 1 -125 1
-244 l0 -218 164 0 164 0 0 243 0 242 71 90 c38 50 80 104 93 120 271 345 526
676 526 680 0 3 -87 5 -194 5 l-194 0 -153 -211 c-85 -116 -161 -220 -169
-232 -8 -12 -42 -59 -76 -104 l-62 -83 -93 125 c-52 69 -158 211 -237 315
l-143 190 -195 0 c-182 0 -194 -1 -185 -17z"/>
<path d="M6053 5020 l-1 -690 624 0 c492 0 624 3 625 13 1 15 1 246 0 267 -1
14 -52 16 -448 15 -247 0 -453 1 -460 3 -16 5 -15 251 1 253 6 1 207 2 446 3
l435 1 1 148 0 147 -447 0 -447 0 0 114 c0 77 4 116 12 118 6 2 212 3 459 3
l447 -1 1 35 c0 20 1 87 2 149 l2 112 -626 0 -626 0 0 -690z"/>
<path d="M7735 5020 l0 -690 165 0 166 0 -1 260 c0 165 4 261 10 263 6 2 62 3
125 3 l115 -1 198 -262 197 -263 195 0 c107 0 195 2 195 4 0 3 -19 28 -109
146 -11 14 -80 106 -155 205 l-136 179 64 34 c166 87 255 257 229 436 -25 175
-135 307 -296 358 -53 16 -101 18 -510 18 l-452 0 0 -690z m868 388 c29 -15
57 -46 72 -82 23 -54 -14 -134 -73 -157 -17 -7 -381 -14 -499 -10 -23 1 -23 3
-23 131 l0 130 251 0 c170 0 257 -4 272 -12z"/>
<path d="M4381 3340 l1 -690 21 0 c20 -1 1167 -1 1210 0 15 0 17 14 17 148 l0
147 -447 -1 c-247 0 -454 2 -460 4 -10 3 -13 38 -13 128 0 111 2 124 18 125 9
0 211 1 447 2 l430 2 0 147 0 148 -447 0 -448 0 0 115 0 115 83 0 c45 1 252 1
460 1 l377 0 0 149 0 150 -625 0 -624 0 0 -690z"/>
<path d="M4370 1625 l0 -691 163 0 162 1 2 235 c0 129 1 247 2 263 l1 27 124
0 124 0 196 -262 197 -263 195 -1 c107 0 194 3 194 7 0 4 -6 14 -13 21 -7 7
-30 38 -52 68 -22 30 -48 64 -57 74 -10 11 -30 38 -45 60 -16 22 -36 50 -45
61 -9 11 -55 72 -103 134 l-86 115 38 15 c49 18 123 72 162 117 104 117 130
309 63 456 -34 73 -106 158 -166 193 -100 59 -92 58 -593 60 l-463 1 0 -691z
m876 381 c63 -42 83 -99 55 -162 -35 -78 -40 -79 -333 -80 l-258 0 0 131 0
131 253 0 c232 -1 256 -3 283 -20z"/>
</g>
</svg>
